<svg viewBox="0 0 24 24" fill="#00C4CC" xmlns="http://www.w3.org/2000/svg"><path d="M12 24c6.627 0 12-5.373 12-12S18.627 0 12 0 0 5.373 0 12s5.373 12 12 12Z" fill="#00C4CC"/><path d="M9.5 16.5C7.5 16.5 6 15 6 13c0-2.5 2-4.5 4.5-4.5 2.1 0 3.8 1.4 4.3 3.3.1.3.4.5.7.5h.1c.4-.1.7-.5.6-.9-.8-2.6-3.1-4.4-5.7-4.4-3.3 0-6 2.7-6 6 0 2.8 2.2 5 5 5 1.6 0 3-.7 3.9-1.9.2-.3.2-.7-.1-.9-.3-.3-.7-.2-1 .1-.7.9-1.7 1.4-2.8 1.4zm5.1-4.8c-.2 0-.4.1-.5.3l-1.3 2.5c-.2.4.1.8.5.8h.9c.2 0 .4-.1.5-.3l1.3-2.5c.2-.4-.1-.8-.5-.8h-.9zM18 11.5c-1.4 0-2.5 1.1-2.5 2.5s1.1 2.5 2.5 2.5 2.5-1.1 2.5-2.5-1.1-2.5-2.5-2.5zm0 3.5c-.6 0-1-.4-1-1s.4-1 1-1 1 .4 1 1-.4 1-1 1z" fill="#FFFFFF"/></svg>