<svg viewBox="0 0 24 24" fill="#FFFFFF" xmlns="http://www.w3.org/2000/svg"><path d="M2.21 16.63c.73 1.94 2.86 3.16 5.3 3.33 2.14.15 4.67-.32 6.88-1.57 2.05-1.16 3.59-2.9 4.31-4.73.53-1.36.63-2.81.33-4.13L15.34 18.2a.75.75 0 0 1-1.34-.14L9 7.42V17a.75.75 0 0 1-1.5 0V4.3a.75.75 0 0 1 1.43-.32l5.7 12.31 4.14-9.35A8.52 8.52 0 0 0 12 3.5a8.53 8.53 0 0 0-8.5 8.5c0 1.66.47 3.2 1.28 4.5l-.23.46c-.52-1.39-.81-2.94-.81-4.57 0-4.8 3.52-8.8 8.13-9.45a9.98 9.98 0 0 1 11.62 10 9.94 9.94 0 0 1-4.97 8.58c-2.42 1.37-5.23 1.92-7.64 1.75-2.73-.19-5.12-1.57-5.96-3.8l.29-.11z" fill="#FFFFFF"/></svg>